<svg viewBox="0 0 24 24" xmlns="http://www.w3.org/2000/svg">
  <!-- Apple Music logo with gradient -->
  <defs>
    <linearGradient id="appleMusicGradient" x1="0%" y1="0%" x2="100%" y2="100%">
      <stop offset="0%" style="stop-color:#FA243C;stop-opacity:1" />
      <stop offset="100%" style="stop-color:#FF6B35;stop-opacity:1" />
    </linearGradient>
  </defs>
  <!-- Background circle -->
  <circle cx="12" cy="12" r="12" fill="url(#appleMusicGradient)"/>
  <!-- Music note icon -->
  <path fill="white" d="M18.5 7.5c0-.4-.3-.7-.7-.7h-.1c-.2 0-.4.1-.5.2l-6.8 4.3c-.2.1-.4.4-.4.6v5.6c-.4-.2-.9-.3-1.5-.3-1.7 0-3 1.3-3 3s1.3 3 3 3 3-1.3 3-3V12l5.5-3.5v3.5c-.4-.2-.9-.3-1.5-.3-1.7 0-3 1.3-3 3s1.3 3 3 3 3-1.3 3-3V7.5z"/>
</svg>