<svg viewBox="0 0 24 24" xmlns="http://www.w3.org/2000/svg">
  <path fill="#1ED760" d="M12 0C5.374 0 0 5.373 0 12s5.374 12 12 12 12-5.373 12-12S18.626 0 12 0zm5.568 17.3c-.227 0-.407-.093-.568-.227-1.588-.934-3.588-1.407-6-1.407-1.588 0-3.175.234-4.756.7-.135.04-.27.067-.405.067-.72 0-1.295-.588-1.295-1.317 0-.588.334-1.074.847-1.234 2.014-.629 4.014-.967 6.609-.967 2.787 0 5.040.555 7.100 1.647.48.267.747.588.747 1.267 0 .722-.588 1.313-1.295 1.313l.016-.842zm1.295-3.034c-.24 0-.427-.093-.594-.267-1.815-1.161-4.589-1.878-7.556-1.878-1.975 0-3.616.267-5.15.8-.174.067-.335.134-.535.134-.934 0-1.647-.747-1.647-1.647 0-.747.4-1.267.934-1.5 1.748-.614 3.722-1.020 6.398-1.020 3.722 0 6.878.878 9.542 2.545.534.334.747.854.747 1.514 0 .934-.747 1.647-1.647 1.647l.508-.328zm1.484-3.748c-.267 0-.453-.093-.667-.267-2.040-1.267-5.040-1.981-8.426-1.981-2.267 0-4.308.334-6.375.934-.174.054-.374.134-.6.134C2.696 8.668 1.9 7.895 1.9 6.668c0-.854.48-1.444 1.134-1.714C5.593 4.264 8.259 3.9 11.259 3.9c4.081 0 7.618.84 10.539 2.56.64.374.96.934.96 1.687 0 1.267-.84 2.107-2.107 2.107l-.304-.736z"/>
</svg>